<svg width="860" height="669" viewBox="0 0 860 669" fill="none" xmlns="http://www.w3.org/2000/svg">
<mask id="path-1-inside-1_27_810" fill="white">
<path fill-rule="evenodd" clip-rule="evenodd" d="M29 454C114.843 324.436 261.951 239 429.013 239C596.075 239 743.182 324.436 829.026 454C743.182 583.564 596.075 669 429.013 669C261.951 669 114.843 583.564 29 454Z"/>
</mask>
<path d="M29 454L3.99117 437.43L-6.9873 454L3.99117 470.57L29 454ZM829.026 454L854.035 470.57L865.013 454L854.035 437.43L829.026 454ZM54.0088 470.57C134.532 349.036 272.432 269 429.013 269V209C251.469 209 95.1551 299.836 3.99117 437.43L54.0088 470.57ZM429.013 269C585.593 269 723.494 349.036 804.017 470.57L854.035 437.43C762.871 299.836 606.557 209 429.013 209V269ZM804.017 437.43C723.494 558.964 585.593 639 429.013 639V699C606.557 699 762.871 608.164 854.035 470.57L804.017 437.43ZM429.013 639C272.432 639 134.532 558.964 54.0088 437.43L3.99117 470.57C95.1551 608.164 251.469 699 429.013 699V639Z" fill="white" mask="url(#path-1-inside-1_27_810)"/>
<path fill-rule="evenodd" clip-rule="evenodd" d="M454.715 522.549C530.681 508.144 580.586 434.883 566.181 358.917C551.775 282.951 478.515 233.046 402.549 247.451C378.342 252.041 356.782 262.608 339.105 277.333C357.656 282.022 372.754 297.057 376.553 317.094C381.775 344.628 363.687 371.181 336.153 376.402C318.862 379.681 301.957 373.767 290.48 362.093C287.858 377.899 287.924 394.426 291.083 411.083C305.488 487.049 378.749 536.954 454.715 522.549Z" fill="white"/>
<rect x="415" width="30" height="140" fill="white"/>
<rect x="635.136" y="30.1145" width="30" height="140" transform="rotate(18 635.136 30.1145)" fill="white"/>
<rect x="835.192" y="126.781" width="30" height="140" transform="rotate(36 835.192 126.781)" fill="white"/>
<rect x="0.537109" y="144.415" width="30" height="140" transform="rotate(-36 0.537109 144.415)" fill="white"/>
<rect x="196.332" y="39.3853" width="30" height="140" transform="rotate(-18 196.332 39.3853)" fill="white"/>
</svg>
