<svg
	width="786"
	height="786"
	viewBox="0 0 786 786"
	fill="none"
	xmlns="http://www.w3.org/2000/svg"
>
	<path
		d="M581.111 240.017C540.323 270.798 517.174 288.268 476.94 318.63C476.229 319.167 476.509 320.305 477.391 320.429L649.799 344.536"
		stroke="white"
		stroke-width="30"
		stroke-linecap="round"
	/>
	<path
		d="M204.705 240.017C245.493 270.798 268.643 288.268 308.876 318.63C309.588 319.167 309.308 320.305 308.425 320.429L136.017 344.536"
		stroke="white"
		stroke-width="30"
		stroke-linecap="round"
	/>
	<circle
		cx="393"
		cy="389"
		r="384"
		stroke="white"
		stroke-width="30"
		shape-rendering="crispEdges"
	/>
	<path
		d="M204.269 465C198.188 446.978 194.626 427.798 194.003 407.878C193.902 404.643 196.534 402 199.774 402H585.226C588.466 402 591.098 404.643 590.997 407.878C590.374 427.798 586.812 446.978 580.731 465M204.269 465H580.731M204.269 465C217.777 505.031 243.717 539.347 277.5 563.364M580.731 465C567.223 505.031 541.283 539.347 507.5 563.364M277.5 563.364C309.951 586.434 349.64 600 392.5 600C435.36 600 475.049 586.434 507.5 563.364M277.5 563.364C366.53 525.326 416.851 525.117 507.5 563.364"
		stroke="white"
		stroke-width="30"
	/>
</svg>